<svg width="33" height="25" viewBox="0 0 33 25" fill="none" xmlns="http://www.w3.org/2000/svg">
<g clip-path="url(#clip0_66_162)">
<path d="M6.11838 24.6661V23.0451C6.11838 22.4237 5.73079 22.0185 5.06635 22.0185C4.73413 22.0185 4.37422 22.1265 4.12506 22.4778C3.93126 22.1806 3.65441 22.0185 3.23914 22.0185C2.96229 22.0185 2.68544 22.0995 2.46395 22.3967V22.0725H1.88257V24.6661H2.46395V23.2342C2.46395 22.7749 2.71312 22.5588 3.10071 22.5588C3.4883 22.5588 3.6821 22.802 3.6821 23.2342V24.6661H4.26348V23.2342C4.26348 22.7749 4.54033 22.5588 4.90024 22.5588C5.28783 22.5588 5.48163 22.802 5.48163 23.2342V24.6661H6.11838ZM14.7284 22.0725H13.7871V21.289H13.2058V22.0725H12.6797V22.5858H13.2058V23.7745C13.2058 24.3689 13.4549 24.7201 14.1194 24.7201C14.3685 24.7201 14.6454 24.6391 14.8392 24.531L14.6731 24.0447C14.507 24.1528 14.3132 24.1798 14.1747 24.1798C13.8979 24.1798 13.7871 24.0177 13.7871 23.7475V22.5858H14.7284V22.0725ZM19.6564 22.0185C19.3242 22.0185 19.1027 22.1806 18.9642 22.3967V22.0725H18.3829V24.6661H18.9642V23.2072C18.9642 22.7749 19.158 22.5318 19.518 22.5318C19.6287 22.5318 19.7671 22.5588 19.8779 22.5858L20.044 22.0455C19.9332 22.0185 19.7671 22.0185 19.6564 22.0185ZM12.2091 22.2886C11.9322 22.0995 11.5447 22.0185 11.1294 22.0185C10.4649 22.0185 10.022 22.3427 10.022 22.856C10.022 23.2882 10.3542 23.5314 10.9356 23.6124L11.2124 23.6395C11.517 23.6935 11.6831 23.7745 11.6831 23.9096C11.6831 24.0987 11.4616 24.2338 11.074 24.2338C10.6864 24.2338 10.3819 24.0987 10.1881 23.9636L9.91123 24.3959C10.2158 24.612 10.631 24.7201 11.0463 24.7201C11.8215 24.7201 12.2645 24.3689 12.2645 23.8826C12.2645 23.4233 11.9046 23.1802 11.3509 23.0991L11.074 23.0721C10.8248 23.0451 10.631 22.9911 10.631 22.829C10.631 22.6399 10.8248 22.5318 11.1294 22.5318C11.4616 22.5318 11.7938 22.6669 11.9599 22.7479L12.2091 22.2886ZM27.6574 22.0185C27.3251 22.0185 27.1037 22.1806 26.9652 22.3967V22.0725H26.3838V24.6661H26.9652V23.2072C26.9652 22.7749 27.159 22.5318 27.5189 22.5318C27.6297 22.5318 27.7681 22.5588 27.8788 22.5858L28.0449 22.0455C27.9342 22.0185 27.7681 22.0185 27.6574 22.0185ZM20.2378 23.3693C20.2378 24.1528 20.7915 24.7201 21.6497 24.7201C22.0373 24.7201 22.3141 24.6391 22.591 24.4229L22.3141 23.9636C22.0927 24.1257 21.8712 24.2068 21.622 24.2068C21.1514 24.2068 20.8191 23.8826 20.8191 23.3693C20.8191 22.883 21.1514 22.5588 21.622 22.5318C21.8712 22.5318 22.0927 22.6128 22.3141 22.7749L22.591 22.3157C22.3141 22.0995 22.0373 22.0185 21.6497 22.0185C20.7915 22.0185 20.2378 22.5858 20.2378 23.3693ZM25.6087 23.3693V22.0725H25.0273V22.3967C24.8335 22.1536 24.5566 22.0185 24.1967 22.0185C23.4492 22.0185 22.8678 22.5858 22.8678 23.3693C22.8678 24.1528 23.4492 24.7201 24.1967 24.7201C24.5843 24.7201 24.8612 24.585 25.0273 24.3419V24.6661H25.6087V23.3693ZM23.4769 23.3693C23.4769 22.91 23.7814 22.5318 24.2798 22.5318C24.7504 22.5318 25.0826 22.883 25.0826 23.3693C25.0826 23.8286 24.7504 24.2068 24.2798 24.2068C23.7814 24.1798 23.4769 23.8286 23.4769 23.3693ZM16.528 22.0185C15.7528 22.0185 15.1991 22.5588 15.1991 23.3693C15.1991 24.1798 15.7528 24.7201 16.5556 24.7201C16.9432 24.7201 17.3308 24.612 17.6354 24.3689L17.3585 23.9636C17.137 24.1257 16.8602 24.2338 16.5833 24.2338C16.2234 24.2338 15.8635 24.0717 15.7805 23.6124H17.7461V23.3963C17.7738 22.5588 17.2755 22.0185 16.528 22.0185ZM16.528 22.5048C16.8879 22.5048 17.137 22.7209 17.1924 23.1261H15.8082C15.8635 22.7749 16.1127 22.5048 16.528 22.5048ZM30.9519 23.3693V21.0459H30.3705V22.3967C30.1767 22.1536 29.8998 22.0185 29.5399 22.0185C28.7924 22.0185 28.2111 22.5858 28.2111 23.3693C28.2111 24.1528 28.7924 24.7201 29.5399 24.7201C29.9275 24.7201 30.2044 24.585 30.3705 24.3419V24.6661H30.9519V23.3693ZM28.8201 23.3693C28.8201 22.91 29.1247 22.5318 29.623 22.5318C30.0936 22.5318 30.4259 22.883 30.4259 23.3693C30.4259 23.8286 30.0936 24.2068 29.623 24.2068C29.1247 24.1798 28.8201 23.8286 28.8201 23.3693ZM9.38522 23.3693V22.0725H8.80383V22.3967C8.61004 22.1536 8.33319 22.0185 7.97328 22.0185C7.22578 22.0185 6.6444 22.5858 6.6444 23.3693C6.6444 24.1528 7.22578 24.7201 7.97328 24.7201C8.36087 24.7201 8.63772 24.585 8.80383 24.3419V24.6661H9.38522V23.3693ZM7.22578 23.3693C7.22578 22.91 7.53032 22.5318 8.02865 22.5318C8.4993 22.5318 8.83152 22.883 8.83152 23.3693C8.83152 23.8286 8.4993 24.2068 8.02865 24.2068C7.53032 24.1798 7.22578 23.8286 7.22578 23.3693Z" fill="black"/>
<path d="M20.7362 2.37744H12.0154V17.6686H20.7362V2.37744Z" fill="#FF5F00"/>
<path d="M12.5691 10.0232C12.5691 6.91634 14.0641 4.16068 16.362 2.37761C14.6732 1.08083 12.5414 0.297363 10.2159 0.297363C4.70656 0.297363 0.249268 4.64697 0.249268 10.0232C0.249268 15.3994 4.70656 19.749 10.2159 19.749C12.5414 19.749 14.6732 18.9656 16.362 17.6688C14.0641 15.9127 12.5691 13.1301 12.5691 10.0232Z" fill="#EB001B"/>
<path d="M32.5024 10.0232C32.5024 15.3994 28.0451 19.749 22.5357 19.749C20.2102 19.749 18.0784 18.9656 16.3896 17.6688C18.7152 15.8857 20.1825 13.1301 20.1825 10.0232C20.1825 6.91634 18.6875 4.16068 16.3896 2.37761C18.0784 1.08083 20.2102 0.297363 22.5357 0.297363C28.0451 0.297363 32.5024 4.67399 32.5024 10.0232Z" fill="#F79E1B"/>
</g>
<defs>
<clipPath id="clip0_66_162">
<rect width="32.7586" height="25" fill="white"/>
</clipPath>
</defs>
</svg>
