<svg width="80" height="20" viewBox="0 0 80 20" fill="none" xmlns="http://www.w3.org/2000/svg">
<path fill-rule="evenodd" clip-rule="evenodd" d="M61.0273 8.47058C60.7911 10.0219 59.6062 10.0219 58.4603 10.0219H57.8082L58.2656 7.12551C58.2932 6.95051 58.4441 6.82154 58.6215 6.82154H58.9204C59.7003 6.82154 60.4372 6.82154 60.8171 7.26594C61.0444 7.53185 61.1131 7.92595 61.0273 8.47058ZM60.5285 4.42334H56.2066C55.9112 4.42334 55.6596 4.63836 55.6136 4.93029L53.8661 16.0119C53.8315 16.2304 54.0005 16.4281 54.2219 16.4281H56.4393C56.6461 16.4281 56.8223 16.2776 56.8543 16.0733L57.35 12.9317C57.3961 12.6398 57.6476 12.4248 57.943 12.4248H59.3106C62.1573 12.4248 63.8001 11.0471 64.2296 8.31675C64.4228 7.1226 64.2373 6.18426 63.6782 5.52736C63.0636 4.8052 61.9743 4.42334 60.5285 4.42334Z" fill="#238EC2"/>
<path fill-rule="evenodd" clip-rule="evenodd" d="M30.2032 8.47058C29.9671 10.0219 28.7822 10.0219 27.6364 10.0219H26.9844L27.4416 7.12551C27.4694 6.95051 27.6203 6.82154 27.7975 6.82154H28.0964C28.8764 6.82154 29.6134 6.82154 29.9931 7.26594C30.2205 7.53185 30.2893 7.92595 30.2032 8.47058ZM29.7046 4.42334H25.3828C25.0873 4.42334 24.8358 4.63836 24.7898 4.93029L23.0421 16.0119C23.0077 16.2304 23.1767 16.4281 23.3979 16.4281H25.4614C25.7569 16.4281 26.0086 16.2131 26.0546 15.9214L26.5262 12.9317C26.572 12.6398 26.8238 12.4248 27.1192 12.4248H28.4868C31.3333 12.4248 32.9763 11.0471 33.4058 8.31675C33.599 7.1226 33.4135 6.18426 32.8543 5.52736C32.2396 4.8052 31.1503 4.42334 29.7046 4.42334Z" fill="#253666"/>
<path fill-rule="evenodd" clip-rule="evenodd" d="M39.7377 12.4492C39.5378 13.6317 38.5991 14.4255 37.4018 14.4255C36.8017 14.4255 36.3211 14.2324 36.0123 13.8669C35.7062 13.5045 35.591 12.9882 35.6879 12.4133C35.8744 11.2415 36.8281 10.422 38.0071 10.422C38.5948 10.422 39.0718 10.617 39.3869 10.9858C39.7039 11.3574 39.8284 11.8772 39.7377 12.4492ZM42.6217 8.42138H40.5523C40.375 8.42138 40.224 8.55015 40.1965 8.72555L40.1054 9.30417L39.9607 9.0944C39.5126 8.44391 38.5138 8.22656 37.5164 8.22656C35.2301 8.22656 33.2771 9.95912 32.897 12.3892C32.6991 13.6014 32.9799 14.7598 33.6673 15.5684C34.2988 16.3113 35.2 16.6205 36.2737 16.6205C38.1166 16.6205 39.1387 15.4367 39.1387 15.4367L39.0462 16.0118C39.0116 16.2305 39.1806 16.4284 39.402 16.4284H41.2657C41.5611 16.4284 41.8127 16.2136 41.8587 15.9217L42.9775 8.83762C43.0121 8.61891 42.8431 8.42138 42.6217 8.42138Z" fill="#253666"/>
<path fill-rule="evenodd" clip-rule="evenodd" d="M70.5618 12.4492C70.3619 13.6317 69.4234 14.4255 68.2261 14.4255C67.6258 14.4255 67.1454 14.2324 66.8364 13.8669C66.5303 13.5045 66.4151 12.9882 66.5122 12.4133C66.6985 11.2415 67.6522 10.422 68.8314 10.422C69.4189 10.422 69.8962 10.617 70.211 10.9858C70.528 11.3574 70.6525 11.8772 70.5618 12.4492ZM73.4458 8.42138H71.3764C71.1991 8.42138 71.0482 8.55015 71.0206 8.72555L70.9295 9.30417L70.785 9.0944C70.3367 8.44391 69.3379 8.22656 68.3406 8.22656C66.0544 8.22656 64.1012 9.95912 63.7211 12.3892C63.5234 13.6014 63.8042 14.7598 64.4914 15.5684C65.1231 16.3113 66.0241 16.6205 67.0978 16.6205C68.9407 16.6205 69.9628 15.4367 69.9628 15.4367L69.8705 16.0118C69.8358 16.2305 70.0047 16.4284 70.2264 16.4284H72.0898C72.3853 16.4284 72.6368 16.2136 72.683 15.9217L73.8016 8.83762C73.8362 8.61891 73.6672 8.42138 73.4458 8.42138Z" fill="#238EC2"/>
<mask id="mask0_66_50" style="mask-type:alpha" maskUnits="userSpaceOnUse" x="0" y="0" width="79" height="20">
<path d="M0.0117188 19.2288V0.15918H78.5973V19.2288H0.0117188Z" fill="white"/>
</mask>
<g mask="url(#mask0_66_50)">
<path fill-rule="evenodd" clip-rule="evenodd" d="M53.6434 8.42139H51.5634C51.3645 8.42139 51.1784 8.52006 51.0667 8.68457L48.1975 12.9105L46.9814 8.84967C46.9055 8.59561 46.6716 8.42139 46.4063 8.42139H44.3616C44.1147 8.42139 43.9409 8.66418 44.0205 8.89784L46.3109 15.6206L44.1567 18.6604C43.9875 18.8989 44.1582 19.2289 44.4505 19.2289H46.5286C46.7256 19.2289 46.9099 19.1324 47.0222 18.9704L53.9396 8.98699C54.1051 8.74809 53.9342 8.42139 53.6434 8.42139Z" fill="#253666"/>
<path fill-rule="evenodd" clip-rule="evenodd" d="M75.8849 4.7277L74.1111 16.0119C74.0768 16.2306 74.2457 16.4281 74.467 16.4281H76.251C76.5464 16.4281 76.798 16.2131 76.844 15.9214L78.5929 4.83978C78.6275 4.62107 78.4585 4.42334 78.237 4.42334H76.2407C76.0634 4.42334 75.9125 4.55251 75.8849 4.7277Z" fill="#238EC2"/>
<path fill-rule="evenodd" clip-rule="evenodd" d="M14.564 5.00394C14.7967 3.52058 14.5624 2.51115 13.76 1.59689C12.8767 0.590378 11.2809 0.15918 9.23907 0.15918H3.31204C2.89483 0.15918 2.53958 0.462766 2.47451 0.874929L0.00658212 16.5249C-0.0421704 16.8337 0.196542 17.1128 0.509064 17.1128H4.16803L3.91553 18.7143C3.87299 18.9845 4.0816 19.2288 4.35508 19.2288H7.43911C7.80427 19.2288 8.11504 18.9631 8.17195 18.6026L8.20225 18.4459L8.78321 14.7616L8.82069 14.5581C8.8776 14.1974 9.18838 13.9319 9.55334 13.9319H10.0146C13.0025 13.9319 15.3421 12.7179 16.0256 9.20734C16.3113 7.74049 16.1637 6.51605 15.4083 5.6552C15.1797 5.39493 14.8955 5.17953 14.564 5.00394Z" fill="#238EC2"/>
<path fill-rule="evenodd" clip-rule="evenodd" d="M14.564 5.00394C14.7967 3.52058 14.5624 2.51115 13.76 1.59689C12.8767 0.590378 11.2809 0.15918 9.23907 0.15918H3.31204C2.89483 0.15918 2.53958 0.462766 2.47451 0.874929L0.00658212 16.5249C-0.0421704 16.8337 0.196542 17.1128 0.509063 17.1128H4.16803L5.08714 11.2847L5.05859 11.4674C5.12366 11.0553 5.476 10.7515 5.89321 10.7515H7.63237C11.0478 10.7515 13.722 9.36389 14.5034 5.35103C14.5265 5.23236 14.5463 5.11718 14.564 5.00394Z" fill="#20264E"/>
<path fill-rule="evenodd" clip-rule="evenodd" d="M6.07443 5.02375C6.11366 4.77572 6.27274 4.57274 6.48698 4.46999C6.58449 4.42338 6.69326 4.39735 6.80727 4.39735H11.4531C12.0036 4.39735 12.5168 4.43348 12.9858 4.50903C13.12 4.53059 13.2504 4.55545 13.3772 4.58362C13.5038 4.61159 13.627 4.64305 13.7461 4.67802C13.8057 4.6953 13.8642 4.71356 13.9218 4.73279C14.1522 4.80912 14.3666 4.89944 14.564 5.00394C14.7967 3.52058 14.5624 2.51115 13.76 1.59689C12.8767 0.590378 11.2809 0.15918 9.23907 0.15918H3.31204C2.89483 0.15918 2.53958 0.462766 2.47451 0.874929L0.00658212 16.5249C-0.0421704 16.8337 0.196542 17.1128 0.509063 17.1128H4.16803L6.07443 5.02375Z" fill="#253666"/>
</g>
</svg>
