<svg width="64" height="20" viewBox="0 0 64 20" fill="none" xmlns="http://www.w3.org/2000/svg">
<g clip-path="url(#clip0_66_151)">
<path fill-rule="evenodd" clip-rule="evenodd" d="M22.6912 19.1225L25.8815 0.40332H30.9838L27.7913 19.1225H22.6912Z" fill="#004F8B"/>
<path fill-rule="evenodd" clip-rule="evenodd" d="M46.2967 0.86414C45.2858 0.484759 43.7019 0.078125 41.7236 0.078125C36.6823 0.078125 33.1305 2.6169 33.1004 6.25544C33.0721 8.94518 35.636 10.4459 37.5712 11.3412C39.5571 12.2585 40.2251 12.8437 40.2154 13.6631C40.2029 14.9177 38.6294 15.4911 37.1628 15.4911C35.1207 15.4911 34.036 15.2075 32.3603 14.5086L31.7027 14.211L30.9866 18.4014C32.1785 18.9238 34.3824 19.3767 36.6701 19.4C42.0338 19.4 45.5153 16.8903 45.5551 13.0047C45.5745 10.8754 44.2147 9.25464 41.2715 7.91891C39.4879 7.05293 38.3956 6.4749 38.4071 5.59816C38.4071 4.82003 39.3315 3.98812 41.3292 3.98812C42.9977 3.9623 44.2061 4.32591 45.1478 4.70529L45.6049 4.92115L46.2967 0.86414Z" fill="#004F8B"/>
<path fill-rule="evenodd" clip-rule="evenodd" d="M59.3803 0.421387H55.4376C54.2163 0.421387 53.3023 0.754511 52.7658 1.9737L45.1882 19.1287H50.5462C50.5462 19.1287 51.4222 16.8219 51.6205 16.3156C52.2061 16.3156 57.4106 16.3235 58.1546 16.3235C58.3074 16.9786 58.7757 19.1287 58.7757 19.1287H63.5101L59.3803 0.421387ZM53.0889 12.4866C53.5106 11.408 55.1217 7.25384 55.1217 7.25384C55.0912 7.30368 55.5405 6.1702 55.798 5.46738L56.143 7.08136C56.143 7.08136 57.1201 11.5497 57.3241 12.4866H53.0889Z" fill="#004F8B"/>
<path fill-rule="evenodd" clip-rule="evenodd" d="M18.4118 0.416992L13.4164 13.1822L12.8842 10.5879C11.9544 7.59727 9.05707 4.35747 5.81763 2.73559L10.3853 19.1064L15.7837 19.1003L23.8164 0.416992H18.4118Z" fill="#004F8B"/>
<path fill-rule="evenodd" clip-rule="evenodd" d="M8.78235 0.405273H0.555008L0.489746 0.794695C6.89082 2.34413 11.1261 6.08846 12.8842 10.5876L11.0952 1.98555C10.7861 0.800074 9.89037 0.446511 8.78235 0.405273Z" fill="#EE9F2D"/>
</g>
<defs>
<clipPath id="clip0_66_151">
<rect width="64" height="20" fill="white"/>
</clipPath>
</defs>
</svg>
