<svg width="20" height="20" viewBox="0 0 20 20" fill="none" xmlns="http://www.w3.org/2000/svg">
<path d="M15.65 9.47501L11.6667 4.47501C11.5979 4.38941 11.5129 4.31824 11.4165 4.26559C11.3202 4.21295 11.2143 4.17987 11.1052 4.16825C10.996 4.15663 10.8856 4.16671 10.7803 4.19791C10.675 4.2291 10.5769 4.28079 10.4917 4.35001C10.4061 4.41878 10.3349 4.50379 10.2822 4.60016C10.2296 4.69652 10.1965 4.80234 10.1849 4.91153C10.1733 5.02072 10.1834 5.13113 10.2146 5.23641C10.2458 5.34169 10.2974 5.43977 10.3667 5.52501L13.925 10L10.1917 14.475C10.1215 14.5592 10.0686 14.6564 10.0361 14.7611C10.0036 14.8658 9.99199 14.9758 10.0021 15.085C10.0121 15.1941 10.0436 15.3002 10.0947 15.3972C10.1459 15.4941 10.2156 15.5801 10.3 15.65C10.4511 15.7713 10.6397 15.8361 10.8333 15.8333C10.9558 15.8335 11.0767 15.8068 11.1876 15.7549C11.2985 15.7031 11.3966 15.6274 11.475 15.5333L15.6417 10.5333C15.7654 10.3852 15.8339 10.1987 15.8354 10.0057C15.8369 9.81265 15.7714 9.62509 15.65 9.47501Z" fill="#272C30"/>
<path d="M5.83342 4.47504C5.69418 4.29713 5.48997 4.18181 5.2657 4.15446C5.04144 4.12711 4.8155 4.18997 4.63758 4.32921C4.45967 4.46845 4.34435 4.67266 4.317 4.89692C4.28965 5.12119 4.35251 5.34713 4.49175 5.52504L8.09175 10L4.35842 14.4667C4.28825 14.5509 4.23538 14.6481 4.20284 14.7528C4.17031 14.8575 4.15874 14.9675 4.1688 15.0767C4.17887 15.1858 4.21036 15.2919 4.26149 15.3889C4.31262 15.4858 4.38237 15.5718 4.46675 15.6417C4.61668 15.7659 4.80537 15.8338 5.00008 15.8334C5.12251 15.8336 5.24347 15.8068 5.35438 15.7549C5.46528 15.7031 5.5634 15.6274 5.64175 15.5334L9.80842 10.5334C9.93099 10.3843 9.99799 10.1972 9.99799 10.0042C9.99799 9.81119 9.93099 9.62415 9.80842 9.47504L5.83342 4.47504Z" fill="#272C30"/>
</svg>
