<svg width="9047" height="120" viewBox="0 0 9047 120" fill="none" xmlns="http://www.w3.org/2000/svg">
<path d="M311 37.2239C147.5 -1.27609 142 -0.776096 -0.000488281 59.7239V119.724H1581L1650 67.7239C1661.5 65.0572 1648.9 61.3239 1506.5 67.7239C1328.5 75.7238 1316.5 -4.77615 1190 0.223855C1063.5 5.22385 963.5 67.7239 863 59.7239C762.5 51.7239 759 5.72389 669.5 8.22389C580 10.7239 474.5 75.7239 311 37.2239Z" fill="white"/>
<path d="M2644.26 37.2239C2807.76 -1.27609 2811.01 32.9478 2955.26 59.7239C3099.5 86.5 2955.26 119.724 2955.26 119.724H1374.26L1305.26 67.7239C1293.76 65.0572 1306.36 61.3239 1448.76 67.7239C1626.76 75.7238 1638.76 -4.77615 1765.26 0.223855C1891.76 5.22385 1991.76 67.7239 2092.26 59.7239C2192.76 51.7239 2196.26 5.72389 2285.76 8.22389C2375.26 10.7239 2480.76 75.7239 2644.26 37.2239Z" fill="white"/>
<path d="M4196.26 37.2244C4359.76 -1.27557 4382 65.5 4541 81.5L4507.26 119.724H2926.26L2857.26 67.7244C2845.76 65.0577 2881.5 46.5001 3000.76 67.7244C3176.18 98.9445 3190.76 -4.77563 3317.26 0.224373C3443.76 5.22437 3543.76 67.7244 3644.26 59.7244C3744.76 51.7244 3748.26 5.72441 3837.76 8.22441C3927.26 10.7244 4032.76 75.7244 4196.26 37.2244Z" fill="white"/>
<path d="M8735.26 37.2239C8898.76 -1.27609 8904.26 -0.776096 9046.26 59.7239V119.724H7465.26L7396.26 67.7239C7384.76 65.0572 7397.36 61.3239 7539.76 67.7239C7717.76 75.7238 7729.76 -4.77615 7856.26 0.223855C7982.76 5.22385 8082.76 67.7239 8183.26 59.7239C8283.76 51.7239 8287.26 5.72389 8376.76 8.22389C8466.26 10.7239 8571.76 75.7239 8735.26 37.2239Z" fill="white"/>
<path d="M6402 37.2239C6238.5 -1.27609 6235.24 32.9478 6091 59.7239C5946.76 86.5 6091 119.724 6091 119.724H7672L7741 67.7239C7752.5 65.0572 7739.9 61.3239 7597.5 67.7239C7419.5 75.7238 7407.5 -4.77615 7281 0.223855C7154.5 5.22385 7054.5 67.7239 6954 59.7239C6853.5 51.7239 6850 5.72389 6760.5 8.22389C6671 10.7239 6565.5 75.7239 6402 37.2239Z" fill="white"/>
<path d="M4850 37.2244C4686.5 -1.27558 4660.5 97.5 4527 80L4491 119.724H6120L6189 67.7244C6200.5 65.0577 6164.76 46.5001 6045.5 67.7244C5870.08 98.9445 5855.5 -4.77563 5729 0.224373C5602.5 5.22437 5502.5 67.7244 5402 59.7244C5301.5 51.7244 5298 5.72441 5208.5 8.22441C5119 10.7244 5013.5 75.7244 4850 37.2244Z" fill="white"/>
</svg>
