<svg width="4508" height="120" viewBox="0 0 4508 120" fill="none" xmlns="http://www.w3.org/2000/svg">
<path d="M311 37.2239C147.5 -1.27609 142 -0.776096 0 59.7239V119.724H1581L1650 67.7239C1661.5 65.0572 1648.9 61.3239 1506.5 67.7239C1328.5 75.7238 1316.5 -4.77615 1190 0.223855C1063.5 5.22385 963.5 67.7239 863 59.7239C762.5 51.7239 759 5.72389 669.5 8.22389C580 10.7239 474.5 75.7239 311 37.2239Z" fill="white"/>
<path d="M2644.26 37.2239C2807.76 -1.27609 2811.01 32.9478 2955.26 59.7239C3099.5 86.5 2955.26 119.724 2955.26 119.724H1374.26L1305.26 67.7239C1293.76 65.0572 1306.36 61.3239 1448.76 67.7239C1626.76 75.7238 1638.76 -4.77615 1765.26 0.223855C1891.76 5.22385 1991.76 67.7239 2092.26 59.7239C2192.76 51.7239 2196.26 5.72389 2285.76 8.22389C2375.26 10.7239 2480.76 75.7239 2644.26 37.2239Z" fill="white"/>
<path d="M4196.26 37.2244C4359.76 -1.27557 4365.26 -0.775578 4507.26 59.7244V119.724H2926.26L2857.26 67.7244C2845.76 65.0577 2881.5 46.5001 3000.76 67.7244C3176.18 98.9445 3190.76 -4.77563 3317.26 0.224373C3443.76 5.22437 3543.76 67.7244 3644.26 59.7244C3744.76 51.7244 3748.26 5.72441 3837.76 8.22441C3927.26 10.7244 4032.76 75.7244 4196.26 37.2244Z" fill="white"/>
</svg>
